<svg xmlns="http://www.w3.org/2000/svg"  viewBox="0 0 24 24" width="48px" height="48px"><path d="M20,4H7.07C5.73,4,4.486,4.666,3.742,5.781l-3.406,5.109c-0.448,0.672-0.448,1.547,0,2.219	l3.406,5.109C4.486,19.334,5.73,20,7.07,20H20c1.654,0,3-1.346,3-3V7C23,5.346,21.654,4,20,4z" opacity=".35"/><path d="M15.812,16.215L8.785,9.188c-0.384-0.384-0.384-1.008,0-1.392l0.011-0.011c0.384-0.384,1.008-0.384,1.392,0l7.027,7.027	c0.384,0.384,0.384,1.008,0,1.392l-0.011,0.011C16.82,16.599,16.196,16.599,15.812,16.215z"/><path d="M8.785,14.812l7.027-7.027c0.384-0.384,1.008-0.384,1.392,0l0.011,0.011c0.384,0.384,0.384,1.008,0,1.392l-7.027,7.027	c-0.384,0.384-1.008,0.384-1.392,0l-0.011-0.011C8.401,15.82,8.401,15.196,8.785,14.812z"/></svg>